# xmcd CD database file
#
# Track frame offsets:
#	150
#	13925
#	30603
#	46061
#	60741
#	78078
#	91231
#	108280
#	122061
#	136280
#	151727
#	167380
#
# Disc length: 2405 seconds
#
# Revision: 0
# Processed by: cddbd v1.5.2PL0 Copyright (c) Steve Scherf et al.
# Submitted via: CDex 1.51
#
DISCID=8409630c
DTITLE=Mad Manoush - Train to New Orleans
DYEAR=2014
DGENRE=Jazz
TTITLE0=Train to New Orleans
TTITLE1=Ba Ba Ba
TTITLE2=Swing Mama
TTITLE3=Timba Timba
TTITLE4=Blue Rock Sugar Mountain
TTITLE5=Paris in Spring
TTITLE6=NYC
TTITLE7=Jump it up Jazzy
TTITLE8=Django's Tiger
TTITLE9=That's how much I love ya
TTITLE10=Chica Binita
TTITLE11=Bodo's Home
EXTD=YEAR: 2014
EXTT0=
EXTT1=
EXTT2=
EXTT3=
EXTT4=
EXTT5=
EXTT6=
EXTT7=
EXTT8=
EXTT9=
EXTT10=
EXTT11=
PLAYORDER=
